<svg xmlns="http://www.w3.org/2000/svg" xmlns:xlink="http://www.w3.org/1999/xlink" width="94" zoomAndPan="magnify" viewBox="0 0 70.5 84.749997" height="113" preserveAspectRatio="xMidYMid meet" version="1.0"><defs><clipPath id="8f36b794d2"><path d="M 13 20 L 57 20 L 57 63 L 13 63 Z M 13 20 " clip-rule="nonzero"/></clipPath><clipPath id="d616e3e3a3"><path d="M 26.433594 61.132812 C 37.242188 65.800781 49.796875 60.867188 54.5 50.152344 C 59.199219 39.421875 54.234375 26.953125 43.441406 22.285156 C 32.648438 17.617188 20.078125 22.535156 15.375 33.265625 C 10.675781 43.996094 15.640625 56.464844 26.433594 61.132812 Z M 26.433594 61.132812 " clip-rule="evenodd"/></clipPath><linearGradient x1="2124.596954" gradientTransform="matrix(0.00442761, 0, 0, -0.00439638, -3.656394, 5.739166)" y1="-5856.600164" x2="15309.155401" gradientUnits="userSpaceOnUse" y2="-10505.625428" id="c9580e8da1"><stop stop-opacity="1" stop-color="rgb(89.979553%, 65.808105%, 53.872681%)" offset="0"/><stop stop-opacity="1" stop-color="rgb(89.848328%, 65.623474%, 53.814697%)" offset="0.015625"/><stop stop-opacity="1" stop-color="rgb(89.584351%, 65.255737%, 53.69873%)" offset="0.03125"/><stop stop-opacity="1" stop-color="rgb(89.321899%, 64.886475%, 53.582764%)" offset="0.046875"/><stop stop-opacity="1" stop-color="rgb(89.059448%, 64.518738%, 53.466797%)" offset="0.0625"/><stop stop-opacity="1" stop-color="rgb(88.796997%, 64.151001%, 53.35083%)" offset="0.078125"/><stop stop-opacity="1" stop-color="rgb(88.534546%, 63.783264%, 53.234863%)" offset="0.09375"/><stop stop-opacity="1" stop-color="rgb(88.272095%, 63.415527%, 53.120422%)" offset="0.109375"/><stop stop-opacity="1" stop-color="rgb(88.009644%, 63.046265%, 53.004456%)" offset="0.125"/><stop stop-opacity="1" stop-color="rgb(87.747192%, 62.678528%, 52.888489%)" offset="0.140625"/><stop stop-opacity="1" stop-color="rgb(87.484741%, 62.310791%, 52.772522%)" offset="0.15625"/><stop stop-opacity="1" stop-color="rgb(87.22229%, 61.943054%, 52.656555%)" offset="0.171875"/><stop stop-opacity="1" stop-color="rgb(86.959839%, 61.575317%, 52.540588%)" offset="0.1875"/><stop stop-opacity="1" stop-color="rgb(86.697388%, 61.206055%, 52.424622%)" offset="0.203125"/><stop stop-opacity="1" stop-color="rgb(86.434937%, 60.838318%, 52.308655%)" offset="0.21875"/><stop stop-opacity="1" stop-color="rgb(86.172485%, 60.470581%, 52.192688%)" offset="0.234375"/><stop stop-opacity="1" stop-color="rgb(85.910034%, 60.102844%, 52.076721%)" offset="0.25"/><stop stop-opacity="1" stop-color="rgb(85.647583%, 59.733582%, 51.960754%)" offset="0.260689"/><stop stop-opacity="1" stop-color="rgb(85.516357%, 59.550476%, 51.904297%)" offset="0.265625"/><stop stop-opacity="1" stop-color="rgb(85.385132%, 59.365845%, 51.846313%)" offset="0.28125"/><stop stop-opacity="1" stop-color="rgb(85.122681%, 58.998108%, 51.730347%)" offset="0.296875"/><stop stop-opacity="1" stop-color="rgb(84.858704%, 58.630371%, 51.61438%)" offset="0.3125"/><stop stop-opacity="1" stop-color="rgb(84.596252%, 58.262634%, 51.498413%)" offset="0.328125"/><stop stop-opacity="1" stop-color="rgb(84.333801%, 57.893372%, 51.382446%)" offset="0.34375"/><stop stop-opacity="1" stop-color="rgb(84.07135%, 57.525635%, 51.266479%)" offset="0.359375"/><stop stop-opacity="1" stop-color="rgb(83.808899%, 57.157898%, 51.150513%)" offset="0.375"/><stop stop-opacity="1" stop-color="rgb(83.546448%, 56.790161%, 51.034546%)" offset="0.390625"/><stop stop-opacity="1" stop-color="rgb(83.283997%, 56.422424%, 50.918579%)" offset="0.40625"/><stop stop-opacity="1" stop-color="rgb(83.021545%, 56.053162%, 50.802612%)" offset="0.421875"/><stop stop-opacity="1" stop-color="rgb(82.759094%, 55.685425%, 50.686646%)" offset="0.4375"/><stop stop-opacity="1" stop-color="rgb(82.496643%, 55.317688%, 50.572205%)" offset="0.453125"/><stop stop-opacity="1" stop-color="rgb(82.234192%, 54.949951%, 50.456238%)" offset="0.46875"/><stop stop-opacity="1" stop-color="rgb(81.971741%, 54.582214%, 50.340271%)" offset="0.484375"/><stop stop-opacity="1" stop-color="rgb(81.70929%, 54.212952%, 50.224304%)" offset="0.5"/><stop stop-opacity="1" stop-color="rgb(81.446838%, 53.845215%, 50.108337%)" offset="0.515625"/><stop stop-opacity="1" stop-color="rgb(81.184387%, 53.477478%, 49.992371%)" offset="0.53125"/><stop stop-opacity="1" stop-color="rgb(80.921936%, 53.109741%, 49.876404%)" offset="0.546875"/><stop stop-opacity="1" stop-color="rgb(80.659485%, 52.740479%, 49.760437%)" offset="0.5625"/><stop stop-opacity="1" stop-color="rgb(80.397034%, 52.372742%, 49.64447%)" offset="0.578125"/><stop stop-opacity="1" stop-color="rgb(80.134583%, 52.005005%, 49.528503%)" offset="0.59375"/><stop stop-opacity="1" stop-color="rgb(79.870605%, 51.637268%, 49.414062%)" offset="0.609375"/><stop stop-opacity="1" stop-color="rgb(79.608154%, 51.269531%, 49.298096%)" offset="0.625"/><stop stop-opacity="1" stop-color="rgb(79.345703%, 50.900269%, 49.182129%)" offset="0.640625"/><stop stop-opacity="1" stop-color="rgb(79.083252%, 50.532532%, 49.066162%)" offset="0.65625"/><stop stop-opacity="1" stop-color="rgb(78.820801%, 50.164795%, 48.950195%)" offset="0.671875"/><stop stop-opacity="1" stop-color="rgb(78.55835%, 49.797058%, 48.834229%)" offset="0.6875"/><stop stop-opacity="1" stop-color="rgb(78.295898%, 49.429321%, 48.718262%)" offset="0.703125"/><stop stop-opacity="1" stop-color="rgb(78.033447%, 49.060059%, 48.602295%)" offset="0.71875"/><stop stop-opacity="1" stop-color="rgb(77.770996%, 48.692322%, 48.486328%)" offset="0.734375"/><stop stop-opacity="1" stop-color="rgb(77.508545%, 48.324585%, 48.370361%)" offset="0.739311"/><stop stop-opacity="1" stop-color="rgb(77.377319%, 48.141479%, 48.312378%)" offset="0.75"/><stop stop-opacity="1" stop-color="rgb(77.246094%, 47.956848%, 48.254395%)" offset="0.765625"/><stop stop-opacity="1" stop-color="rgb(76.983643%, 47.587585%, 48.139954%)" offset="0.78125"/><stop stop-opacity="1" stop-color="rgb(76.721191%, 47.219849%, 48.023987%)" offset="0.796875"/><stop stop-opacity="1" stop-color="rgb(76.45874%, 46.852112%, 47.90802%)" offset="0.8125"/><stop stop-opacity="1" stop-color="rgb(76.196289%, 46.484375%, 47.792053%)" offset="0.828125"/><stop stop-opacity="1" stop-color="rgb(75.933838%, 46.116638%, 47.676086%)" offset="0.84375"/><stop stop-opacity="1" stop-color="rgb(75.671387%, 45.747375%, 47.56012%)" offset="0.859375"/><stop stop-opacity="1" stop-color="rgb(75.408936%, 45.379639%, 47.444153%)" offset="0.875"/><stop stop-opacity="1" stop-color="rgb(75.144958%, 45.011902%, 47.328186%)" offset="0.890625"/><stop stop-opacity="1" stop-color="rgb(74.882507%, 44.644165%, 47.212219%)" offset="0.90625"/><stop stop-opacity="1" stop-color="rgb(74.620056%, 44.276428%, 47.096252%)" offset="0.921875"/><stop stop-opacity="1" stop-color="rgb(74.357605%, 43.907166%, 46.980286%)" offset="0.9375"/><stop stop-opacity="1" stop-color="rgb(74.095154%, 43.539429%, 46.865845%)" offset="0.953125"/><stop stop-opacity="1" stop-color="rgb(73.832703%, 43.171692%, 46.749878%)" offset="0.96875"/><stop stop-opacity="1" stop-color="rgb(73.570251%, 42.803955%, 46.633911%)" offset="0.984375"/><stop stop-opacity="1" stop-color="rgb(73.3078%, 42.434692%, 46.517944%)" offset="1"/></linearGradient></defs><g clip-path="url(#8f36b794d2)"><g clip-path="url(#d616e3e3a3)"><path fill="url(#c9580e8da1)" d="M 10.675781 65.800781 L 10.675781 17.617188 L 59.199219 17.617188 L 59.199219 65.800781 Z M 10.675781 65.800781 " fill-rule="nonzero"/></g></g><path fill="#b56474" d="M 44.207031 60.789062 C 36.039062 61.535156 28.386719 60.589844 21.234375 57.953125 C 19 56.109375 17.21875 53.84375 15.921875 51.332031 C 24.902344 57.488281 35.351562 60.046875 47.253906 59.023438 C 46.285156 59.691406 45.269531 60.277344 44.207031 60.789062 Z M 49.25 57.425781 C 50.59375 56.214844 51.796875 54.835938 52.8125 53.285156 C 38.445312 54.710938 25.371094 50.945312 13.613281 41.933594 C 13.644531 44.214844 14.035156 46.460938 14.765625 48.585938 C 24.699219 56.078125 36.195312 59.023438 49.25 57.425781 Z M 54.875 49.253906 C 55.515625 47.609375 55.921875 45.917969 56.121094 44.246094 C 40.535156 45.175781 26.777344 41.964844 14.84375 34.613281 C 14.59375 35.3125 14.378906 36.011719 14.207031 36.722656 C 27.105469 46.308594 40.660156 50.492188 54.875 49.253906 Z M 56.074219 38.800781 C 55.8125 36.894531 55.28125 35.03125 54.515625 33.28125 C 42.363281 33.015625 32.414062 29.636719 24.699219 23.125 C 20.96875 25.15625 17.828125 28.273438 15.828125 32.304688 C 29.902344 39.25 43.316406 41.421875 56.074219 38.800781 Z M 52.65625 29.898438 C 50.453125 26.644531 47.332031 23.960938 43.441406 22.285156 C 38.367188 20.097656 32.914062 20.023438 28.058594 21.664062 C 34.507812 26.148438 42.707031 28.890625 52.65625 29.898438 Z M 52.65625 29.898438 " fill-opacity="0.549" fill-rule="evenodd"/><path fill="#e46a6e" d="M 16.84375 52.914062 C 25.042969 57.703125 34.320312 60.25 44.707031 60.542969 C 46.597656 59.582031 48.359375 58.324219 49.90625 56.820312 C 36.742188 56.960938 24.839844 53.535156 14.191406 46.554688 C 14.703125 48.804688 15.609375 50.960938 16.84375 52.914062 Z M 54.390625 50.402344 C 54.421875 50.324219 54.46875 50.230469 54.5 50.152344 C 54.75 49.578125 54.96875 49.003906 55.171875 48.429688 C 40.800781 48.445312 27.214844 44.320312 14.394531 36.023438 C 14.160156 36.878906 13.972656 37.730469 13.847656 38.597656 C 26.777344 47.5625 40.300781 51.488281 54.390625 50.402344 Z M 56.230469 43.191406 C 56.292969 42.226562 56.308594 41.265625 56.230469 40.304688 C 42.144531 42.152344 28.621094 39.578125 15.671875 32.613281 C 15.578125 32.816406 15.484375 33.015625 15.390625 33.21875 C 30.824219 41.175781 44.425781 44.507812 56.230469 43.191406 Z M 55 34.503906 C 54.640625 33.496094 54.1875 32.519531 53.671875 31.574219 C 43.160156 30.722656 34.054688 27.621094 26.386719 22.285156 C 24.417969 23.136719 22.578125 24.285156 20.9375 25.699219 C 31.011719 32.023438 42.363281 34.957031 55 34.503906 Z M 55 34.503906 " fill-opacity="0.549" fill-rule="evenodd"/><path fill="#e9ad8b" d="M 55.625 36.535156 C 40.332031 36.289062 28.121094 33.328125 18.984375 27.621094 C 20.21875 26.238281 21.640625 25.03125 23.152344 24.023438 C 33.398438 30.613281 43.925781 33.871094 54.71875 33.792969 C 55.09375 34.691406 55.390625 35.605469 55.625 36.535156 Z M 55.625 36.535156 " fill-opacity="0.549" fill-rule="evenodd"/><path fill="#e46a6e" d="M 54.578125 33.4375 C 57.371094 55.550781 32.304688 67.117188 17.765625 54.292969 C 19.921875 57.191406 22.855469 59.597656 26.433594 61.148438 C 37.242188 65.816406 49.796875 60.882812 54.5 50.167969 C 56.933594 44.601562 56.777344 38.597656 54.578125 33.4375 Z M 54.578125 33.4375 " fill-opacity="0.2" fill-rule="evenodd"/><path fill="#e9ad8b" d="M 51.71875 28.613281 C 61.183594 26.332031 67.914062 26.117188 68.851562 28.472656 C 70.351562 32.273438 56.402344 41.28125 37.695312 48.601562 C 18.984375 55.9375 2.601562 58.789062 1.085938 55.007812 C 0.148438 52.632812 5.195312 48.246094 13.675781 43.5 C 13.722656 43.5 13.800781 44.492188 13.800781 44.554688 C 7.613281 48.292969 3.789062 50.882812 4.835938 53.535156 C 5.898438 56.183594 20.765625 54.417969 37.414062 47.902344 C 54.046875 41.390625 66.445312 33.34375 65.085938 29.945312 C 64.335938 28.039062 59.433594 27.992188 52.34375 29.464844 C 52.296875 29.496094 51.703125 28.660156 51.71875 28.613281 Z M 51.71875 28.613281 " fill-opacity="1" fill-rule="evenodd"/></svg>