<svg xmlns="http://www.w3.org/2000/svg" xmlns:xlink="http://www.w3.org/1999/xlink" width="94" zoomAndPan="magnify" viewBox="0 0 70.5 84.749997" height="113" preserveAspectRatio="xMidYMid meet" version="1.0"><defs><clipPath id="2ff405ef4f"><path d="M 2 11 L 69 11 L 69 78 L 2 78 Z M 2 11 " clip-rule="nonzero"/></clipPath><clipPath id="220ce4f8ab"><path d="M 11.695312 68.007812 C 24.613281 80.949219 45.546875 80.949219 58.46875 68.007812 C 71.386719 55.0625 71.386719 34.097656 58.46875 21.152344 C 45.546875 8.207031 24.613281 8.207031 11.695312 21.152344 C -1.226562 34.097656 -1.226562 55.082031 11.695312 68.007812 Z M 11.695312 68.007812 " clip-rule="evenodd"/></clipPath><linearGradient x1="1501.661232" gradientTransform="matrix(0.00513761, 0, 0, -0.00514659, -10.633052, 1.149957)" y1="-2026.330844" x2="16273.134904" gradientUnits="userSpaceOnUse" y2="-14839.464986" id="a49f9b46a8"><stop stop-opacity="1" stop-color="rgb(88.48114%, 41.479492%, 43.218994%)" offset="0"/><stop stop-opacity="1" stop-color="rgb(88.357544%, 41.462708%, 43.234253%)" offset="0.015625"/><stop stop-opacity="1" stop-color="rgb(88.108826%, 41.430664%, 43.266296%)" offset="0.03125"/><stop stop-opacity="1" stop-color="rgb(87.861633%, 41.398621%, 43.299866%)" offset="0.046875"/><stop stop-opacity="1" stop-color="rgb(87.612915%, 41.365051%, 43.331909%)" offset="0.0625"/><stop stop-opacity="1" stop-color="rgb(87.365723%, 41.333008%, 43.363953%)" offset="0.078125"/><stop stop-opacity="1" stop-color="rgb(87.117004%, 41.300964%, 43.395996%)" offset="0.09375"/><stop stop-opacity="1" stop-color="rgb(86.869812%, 41.268921%, 43.42804%)" offset="0.109375"/><stop stop-opacity="1" stop-color="rgb(86.62262%, 41.236877%, 43.460083%)" offset="0.125"/><stop stop-opacity="1" stop-color="rgb(86.373901%, 41.203308%, 43.493652%)" offset="0.140625"/><stop stop-opacity="1" stop-color="rgb(86.126709%, 41.171265%, 43.525696%)" offset="0.15625"/><stop stop-opacity="1" stop-color="rgb(85.877991%, 41.139221%, 43.557739%)" offset="0.171875"/><stop stop-opacity="1" stop-color="rgb(85.630798%, 41.107178%, 43.589783%)" offset="0.1875"/><stop stop-opacity="1" stop-color="rgb(85.38208%, 41.075134%, 43.621826%)" offset="0.203125"/><stop stop-opacity="1" stop-color="rgb(85.134888%, 41.043091%, 43.655396%)" offset="0.21875"/><stop stop-opacity="1" stop-color="rgb(84.886169%, 41.009521%, 43.687439%)" offset="0.234375"/><stop stop-opacity="1" stop-color="rgb(84.638977%, 40.977478%, 43.719482%)" offset="0.25"/><stop stop-opacity="1" stop-color="rgb(84.390259%, 40.945435%, 43.751526%)" offset="0.265625"/><stop stop-opacity="1" stop-color="rgb(84.143066%, 40.913391%, 43.783569%)" offset="0.28125"/><stop stop-opacity="1" stop-color="rgb(83.894348%, 40.881348%, 43.817139%)" offset="0.296875"/><stop stop-opacity="1" stop-color="rgb(83.647156%, 40.847778%, 43.849182%)" offset="0.3125"/><stop stop-opacity="1" stop-color="rgb(83.399963%, 40.815735%, 43.881226%)" offset="0.328125"/><stop stop-opacity="1" stop-color="rgb(83.151245%, 40.783691%, 43.913269%)" offset="0.34375"/><stop stop-opacity="1" stop-color="rgb(82.904053%, 40.751648%, 43.945312%)" offset="0.359375"/><stop stop-opacity="1" stop-color="rgb(82.655334%, 40.719604%, 43.978882%)" offset="0.375"/><stop stop-opacity="1" stop-color="rgb(82.408142%, 40.686035%, 44.010925%)" offset="0.390625"/><stop stop-opacity="1" stop-color="rgb(82.159424%, 40.653992%, 44.042969%)" offset="0.40625"/><stop stop-opacity="1" stop-color="rgb(81.912231%, 40.621948%, 44.075012%)" offset="0.421875"/><stop stop-opacity="1" stop-color="rgb(81.663513%, 40.589905%, 44.107056%)" offset="0.4375"/><stop stop-opacity="1" stop-color="rgb(81.416321%, 40.557861%, 44.139099%)" offset="0.453125"/><stop stop-opacity="1" stop-color="rgb(81.167603%, 40.525818%, 44.172668%)" offset="0.46875"/><stop stop-opacity="1" stop-color="rgb(80.92041%, 40.492249%, 44.204712%)" offset="0.473625"/><stop stop-opacity="1" stop-color="rgb(80.796814%, 40.47699%, 44.221497%)" offset="0.484375"/><stop stop-opacity="1" stop-color="rgb(80.673218%, 40.460205%, 44.236755%)" offset="0.5"/><stop stop-opacity="1" stop-color="rgb(80.4245%, 40.428162%, 44.268799%)" offset="0.515625"/><stop stop-opacity="1" stop-color="rgb(80.177307%, 40.396118%, 44.300842%)" offset="0.526375"/><stop stop-opacity="1" stop-color="rgb(80.053711%, 40.380859%, 44.317627%)" offset="0.53125"/><stop stop-opacity="1" stop-color="rgb(79.928589%, 40.364075%, 44.334412%)" offset="0.546875"/><stop stop-opacity="1" stop-color="rgb(79.681396%, 40.330505%, 44.366455%)" offset="0.5625"/><stop stop-opacity="1" stop-color="rgb(79.432678%, 40.298462%, 44.398499%)" offset="0.578125"/><stop stop-opacity="1" stop-color="rgb(79.185486%, 40.266418%, 44.430542%)" offset="0.59375"/><stop stop-opacity="1" stop-color="rgb(78.936768%, 40.234375%, 44.462585%)" offset="0.609375"/><stop stop-opacity="1" stop-color="rgb(78.689575%, 40.202332%, 44.496155%)" offset="0.625"/><stop stop-opacity="1" stop-color="rgb(78.440857%, 40.168762%, 44.528198%)" offset="0.640625"/><stop stop-opacity="1" stop-color="rgb(78.193665%, 40.136719%, 44.560242%)" offset="0.65625"/><stop stop-opacity="1" stop-color="rgb(77.946472%, 40.104675%, 44.592285%)" offset="0.671875"/><stop stop-opacity="1" stop-color="rgb(77.697754%, 40.072632%, 44.624329%)" offset="0.6875"/><stop stop-opacity="1" stop-color="rgb(77.450562%, 40.040588%, 44.657898%)" offset="0.703125"/><stop stop-opacity="1" stop-color="rgb(77.201843%, 40.007019%, 44.689941%)" offset="0.71875"/><stop stop-opacity="1" stop-color="rgb(76.954651%, 39.974976%, 44.721985%)" offset="0.734375"/><stop stop-opacity="1" stop-color="rgb(76.705933%, 39.942932%, 44.754028%)" offset="0.75"/><stop stop-opacity="1" stop-color="rgb(76.45874%, 39.910889%, 44.786072%)" offset="0.765625"/><stop stop-opacity="1" stop-color="rgb(76.210022%, 39.878845%, 44.818115%)" offset="0.78125"/><stop stop-opacity="1" stop-color="rgb(75.96283%, 39.846802%, 44.851685%)" offset="0.796875"/><stop stop-opacity="1" stop-color="rgb(75.714111%, 39.813232%, 44.883728%)" offset="0.8125"/><stop stop-opacity="1" stop-color="rgb(75.466919%, 39.781189%, 44.915771%)" offset="0.828125"/><stop stop-opacity="1" stop-color="rgb(75.218201%, 39.749146%, 44.947815%)" offset="0.84375"/><stop stop-opacity="1" stop-color="rgb(74.971008%, 39.717102%, 44.979858%)" offset="0.859375"/><stop stop-opacity="1" stop-color="rgb(74.723816%, 39.685059%, 45.013428%)" offset="0.875"/><stop stop-opacity="1" stop-color="rgb(74.475098%, 39.651489%, 45.045471%)" offset="0.890625"/><stop stop-opacity="1" stop-color="rgb(74.227905%, 39.619446%, 45.077515%)" offset="0.90625"/><stop stop-opacity="1" stop-color="rgb(73.979187%, 39.587402%, 45.109558%)" offset="0.921875"/><stop stop-opacity="1" stop-color="rgb(73.731995%, 39.555359%, 45.141602%)" offset="0.9375"/><stop stop-opacity="1" stop-color="rgb(73.483276%, 39.523315%, 45.175171%)" offset="0.953125"/><stop stop-opacity="1" stop-color="rgb(73.236084%, 39.489746%, 45.207214%)" offset="0.96875"/><stop stop-opacity="1" stop-color="rgb(72.987366%, 39.457703%, 45.239258%)" offset="0.984375"/><stop stop-opacity="1" stop-color="rgb(72.740173%, 39.425659%, 45.271301%)" offset="1"/></linearGradient></defs><g clip-path="url(#2ff405ef4f)"><g clip-path="url(#220ce4f8ab)"><path fill="url(#a49f9b46a8)" d="M 0 80.949219 L 0 8.207031 L 70.003906 8.207031 L 70.003906 80.949219 Z M 0 80.949219 " fill-rule="nonzero"/></g></g><path fill="#b56474" d="M 9.046875 24.128906 C 10.734375 24.457031 13.160156 25.074219 14.375 26.089844 C 16.371094 27.761719 19.285156 29.011719 22.367188 28.269531 C 25.449219 27.523438 29.199219 27.105469 30.777344 29.011719 C 32.351562 30.9375 35.742188 30.175781 37.570312 30.773438 C 39.402344 31.355469 41.289062 31.863281 42.898438 31.027344 C 44.511719 30.191406 45.308594 30.519531 47.195312 31.320312 C 49.0625 32.117188 50.238281 31.191406 52.359375 30.9375 C 54.480469 30.683594 53.898438 31.027344 56.5625 31.390625 C 59.226562 31.773438 62.960938 28.8125 64.101562 28.757812 C 63.304688 27.289062 62.382812 25.855469 61.332031 24.492188 L 58.722656 26.890625 L 43.734375 26.144531 L 17.691406 22.585938 L 11.929688 20.933594 C 11.855469 21.007812 11.765625 21.078125 11.695312 21.171875 C 10.734375 22.113281 9.863281 23.09375 9.046875 24.128906 Z M 9.046875 24.128906 " fill-opacity="1" fill-rule="evenodd"/><path fill="#ffcc99" d="M 22.710938 13.855469 C 24.359375 14.960938 27.152344 16.488281 29.582031 16.289062 C 33.332031 15.960938 36.828125 17.628906 39.746094 18.210938 C 42.664062 18.792969 43.75 16.214844 46.488281 16.957031 C 48.753906 17.574219 51.816406 17.175781 52.832031 16.632812 C 43.75 10.839844 32.480469 9.914062 22.710938 13.855469 Z M 11.695312 68.007812 C 24.613281 80.949219 45.546875 80.949219 58.46875 68.007812 C 58.9375 67.535156 59.390625 67.0625 59.828125 66.574219 C 59.027344 66.535156 58.140625 66.519531 57.164062 66.535156 C 53.574219 66.628906 54.152344 68.953125 49.914062 66.863281 C 45.671875 64.777344 44.910156 66.445312 43.5 67.371094 C 42.085938 68.296875 39.492188 69.042969 35.160156 66.699219 C 30.832031 64.359375 29.074219 68.789062 24.488281 66.535156 C 19.902344 64.285156 18.488281 63.195312 14.574219 63.289062 C 12.203125 63.339844 9.15625 62.742188 6.929688 62 C 8.234375 64.121094 9.828125 66.15625 11.695312 68.007812 Z M 67.761719 49.597656 C 68.5625 44.390625 68.109375 39.035156 66.421875 34.003906 C 64.539062 34.296875 62.78125 34.675781 61.910156 35.148438 C 59.574219 36.402344 57.996094 38.578125 53.917969 37.746094 C 49.839844 36.910156 48.589844 35.984375 46.164062 37.164062 C 43.75 38.324219 41.742188 38.996094 38.332031 38.324219 C 34.910156 37.652344 35.089844 36.980469 30.339844 36.238281 C 25.59375 35.492188 24.507812 37.238281 20.265625 35.910156 C 16.007812 34.566406 17.601562 34.75 13.269531 34.660156 C 10.480469 34.605469 6.980469 32.660156 4.824219 31.265625 C 3.359375 34.585938 2.46875 38.109375 2.160156 41.683594 C 3.011719 41.792969 3.847656 41.976562 4.515625 42.265625 C 6.691406 43.191406 6.347656 44.769531 9.429688 46.277344 C 12.507812 47.785156 14.519531 45.949219 16.261719 46.695312 C 18.019531 47.4375 19.339844 48.691406 22.097656 48.363281 C 24.851562 48.039062 27.007812 48.527344 28.835938 49.707031 C 30.667969 50.871094 34.507812 51.886719 37.335938 51.214844 C 40.164062 50.542969 44.003906 50.796875 48.335938 52.46875 C 52.667969 54.136719 54.007812 52.375 58.921875 50.125 C 61.855469 48.746094 65.390625 49.089844 67.761719 49.597656 Z M 62.851562 26.597656 C 62.238281 25.65625 61.566406 24.710938 60.839844 23.820312 C 59.753906 23.875 58.574219 23.839844 57.5625 23.621094 C 54.898438 23.039062 54.226562 23.203125 52.558594 24.039062 C 50.890625 24.875 47.140625 24.621094 44.566406 23.457031 C 41.976562 22.296875 38.226562 24.546875 34.816406 23.203125 C 31.394531 21.859375 28.476562 21.28125 24.324219 20.863281 C 21.351562 20.570312 17.730469 18.648438 15.917969 17.574219 C 14.429688 18.628906 13.015625 19.828125 11.695312 21.152344 C 11.3125 21.535156 10.933594 21.933594 10.570312 22.332031 C 12.800781 23.039062 15.953125 24.113281 16.984375 24.78125 C 18.652344 25.871094 19.902344 27.289062 23.492188 26.871094 C 27.078125 26.453125 29.074219 26.871094 32.40625 27.453125 C 35.742188 28.03125 37.664062 29.539062 41.578125 29.03125 C 45.492188 28.523438 46.578125 27.613281 50.238281 28.359375 C 53.898438 29.105469 58.992188 28.03125 60.078125 27.269531 C 60.515625 26.980469 61.675781 26.761719 62.851562 26.597656 Z M 62.851562 26.597656 " fill-opacity="1" fill-rule="evenodd"/><path fill="#e9ad8b" d="M 13.289062 19.644531 C 14.230469 20.355469 16.207031 21.625 18.5625 21.859375 C 21.898438 22.1875 21.734375 22.730469 23.5625 23.730469 C 25.394531 24.730469 28.238281 23.441406 30.488281 24.730469 C 32.734375 26.015625 33.984375 25.601562 36.574219 25.816406 C 39.167969 26.015625 38.914062 26.78125 41.070312 26.90625 C 43.246094 27.035156 43.898438 25.109375 46.488281 26.109375 C 49.078125 27.105469 50.566406 25.363281 52.867188 25.398438 C 55.152344 25.4375 55.152344 24.65625 56.871094 24.855469 C 58.574219 25.054688 59.699219 24.566406 60.824219 24.566406 C 61.058594 24.566406 61.257812 24.566406 61.4375 24.566406 C 62.109375 25.4375 62.707031 26.34375 63.289062 27.253906 C 62.582031 27.378906 61.148438 27.707031 60.078125 28.359375 C 58.628906 29.230469 55.40625 29.613281 53.992188 29.105469 C 52.578125 28.59375 49.316406 30.230469 47.738281 29.648438 C 46.164062 29.066406 44.910156 28.558594 42.738281 29.230469 C 40.5625 29.902344 39.730469 30.320312 36.703125 29.265625 C 33.65625 28.230469 33.113281 27.089844 30.667969 26.472656 C 28.203125 25.855469 26.5 26.289062 24.976562 25.453125 C 23.457031 24.621094 21.445312 24.875 19.941406 24.09375 C 18.433594 23.3125 15.191406 22.949219 13.90625 22.167969 C 13.109375 21.695312 12.546875 21.042969 12.238281 20.609375 C 12.5625 20.300781 12.925781 19.972656 13.289062 19.644531 Z M 13.289062 19.644531 " fill-opacity="1" fill-rule="evenodd"/><path fill="#e9ad8b" d="M 4.515625 31.898438 C 5.316406 32.679688 7.582031 34.585938 10.949219 34.949219 C 15.210938 35.402344 15.082031 35.367188 16.75 36.328125 C 18.417969 37.292969 19.792969 37.292969 21.460938 37.292969 C 23.128906 37.292969 24.578125 37.492188 26.046875 38.089844 C 27.496094 38.671875 30.214844 37.164062 32.335938 38 C 34.457031 38.835938 35.996094 40.503906 38.078125 40.214844 C 40.164062 39.921875 43.246094 38.125 45.21875 37.253906 C 47.195312 36.382812 48.972656 35.765625 51.183594 36.527344 C 53.394531 37.273438 55.550781 38.035156 57.289062 37 C 59.011719 35.984375 59.410156 34.675781 60.769531 34.605469 C 62.128906 34.53125 64.230469 34.222656 64.664062 33.660156 C 64.882812 33.371094 65.570312 33.332031 66.207031 33.371094 C 68.164062 38.835938 68.652344 44.714844 67.636719 50.378906 C 67.109375 50.234375 66.441406 50.125 65.898438 50.269531 C 64.828125 50.5625 62.851562 50.5625 60.894531 50.632812 C 58.9375 50.6875 56.472656 53.972656 54.679688 53.917969 C 52.886719 53.867188 52.832031 53.648438 51.707031 54.15625 C 50.582031 54.664062 47.414062 52.503906 45.761719 52.394531 C 44.113281 52.285156 42.644531 53.484375 40.796875 52.8125 C 38.96875 52.140625 38.96875 51.867188 37.425781 52.066406 C 37.136719 52.105469 36.773438 52.160156 36.375 52.214844 C 34.890625 52.539062 33.820312 53.03125 32.714844 53.121094 C 31.628906 53.210938 30.847656 52.832031 29.886719 52.523438 C 28.929688 52.214844 27.117188 53.085938 26.082031 53.464844 C 25.050781 53.847656 23.707031 53.71875 23.707031 53.71875 C 24.179688 54.066406 25.160156 54.121094 26.300781 54.046875 C 27.425781 53.957031 32.933594 52.886719 34.835938 54.792969 C 36.757812 56.714844 34.328125 62.308594 28.003906 62.722656 C 21.679688 63.140625 20.71875 60.765625 20.339844 59.929688 C 19.957031 59.09375 19.414062 58.347656 17.457031 58.222656 C 15.5 58.09375 14.992188 56.933594 15.335938 55.972656 C 15.664062 55.007812 15.554688 54.175781 14.71875 52.957031 C 13.886719 51.742188 14.503906 50.742188 14.71875 49.289062 C 14.917969 47.839844 13.378906 47.691406 13.359375 47.675781 C 11.910156 47.894531 10.246094 48.726562 8.921875 47.566406 C 7 45.878906 6.527344 46.042969 4.824219 45.515625 C 3.121094 44.988281 2.851562 43.734375 2.34375 43.519531 C 2.269531 43.480469 2.160156 43.464844 2.035156 43.464844 C 2.160156 39.503906 2.976562 35.601562 4.515625 31.898438 Z M 11.695312 68.007812 C 24.613281 80.949219 45.546875 80.949219 58.46875 68.007812 C 58.519531 67.953125 58.558594 67.917969 58.613281 67.863281 C 57.488281 67.714844 54.953125 67.460938 53.882812 67.878906 C 52.488281 68.40625 50.53125 68.878906 48.789062 67.445312 C 47.066406 66.011719 44.984375 66.917969 43.679688 68.171875 C 42.375 69.421875 39.511719 69.421875 37.71875 68.460938 C 35.921875 67.5 33.457031 69.421875 31.339844 68.207031 C 29.21875 66.992188 29 68.824219 25.085938 68.824219 C 21.171875 68.824219 21.171875 66.410156 18.960938 65.066406 C 16.75 63.722656 14.664062 64.976562 12.925781 64.320312 C 11.695312 63.851562 9.191406 63.523438 7.816406 63.378906 C 8.957031 65.011719 10.246094 66.574219 11.695312 68.007812 Z M 11.695312 68.007812 " fill-opacity="1" fill-rule="evenodd"/><path fill="#b56474" d="M 23.707031 53.703125 C 24.179688 54.046875 25.160156 54.101562 26.300781 54.027344 C 27.425781 53.9375 32.933594 52.867188 34.835938 54.773438 C 36.394531 56.335938 35.109375 60.292969 31.191406 61.960938 C 33.621094 60.691406 33.984375 57.988281 33.097656 56.824219 C 31.355469 54.554688 29.183594 59.4375 26.28125 59.113281 C 22.601562 58.695312 24.109375 53.375 21.0625 53.046875 C 21.734375 52.703125 22.621094 52.921875 23.707031 53.703125 Z M 23.707031 53.703125 " fill-opacity="1" fill-rule="evenodd"/><path fill="#b56474" d="M 2.253906 40.449219 C 3.140625 40.6875 4.117188 41.085938 4.679688 41.757812 C 5.859375 43.171875 6.726562 43.84375 9.265625 43.589844 C 11.800781 43.335938 11.023438 43.679688 12.5625 44.753906 C 14.105469 45.839844 14.902344 45.75 16.222656 45.96875 C 17.566406 46.1875 17.929688 48.566406 17.148438 49.507812 C 16.351562 50.46875 17.277344 52.394531 18.179688 53.140625 C 19.105469 53.882812 18.433594 54.773438 18.597656 56.0625 C 18.761719 57.351562 20.808594 57.152344 21.84375 58.242188 C 22.875 59.328125 23.253906 60.617188 25.429688 60.910156 C 27.605469 61.199219 29.472656 58.785156 29.472656 58.785156 C 29.472656 58.785156 27.296875 60.21875 25.867188 60.054688 C 24.433594 59.890625 23.726562 57.40625 22.894531 56.84375 C 22.058594 56.28125 19.667969 56.550781 20.121094 54.792969 C 20.574219 53.03125 18.871094 52.683594 19.304688 51.433594 C 19.738281 50.179688 21.351562 50.054688 23.5625 50.5625 C 25.773438 51.070312 27.097656 48.601562 30.976562 48.925781 C 34.855469 49.253906 34.347656 51.304688 37.644531 50.761719 C 40.941406 50.214844 40.472656 49.507812 42.554688 50.597656 C 44.640625 51.6875 47.339844 50.507812 49.804688 50.144531 C 52.269531 49.761719 51.761719 50.324219 54.589844 50.5625 C 57.414062 50.796875 60.386719 47.183594 62.128906 47.128906 C 63.867188 47.074219 65.246094 48.417969 67.636719 47.964844 C 67.746094 47.949219 67.871094 47.910156 67.964844 47.875 C 68.363281 43.808594 68.015625 39.6875 66.929688 35.710938 C 66.550781 35.949219 65.953125 36.347656 65.171875 36.890625 C 63.792969 37.855469 62.164062 36.511719 59.71875 37.855469 C 57.269531 39.195312 56.546875 39.558594 54.515625 39.015625 C 52.46875 38.472656 46.109375 40.46875 42.554688 42.355469 C 39.023438 44.226562 37.679688 43.898438 34.054688 41.484375 C 30.433594 39.070312 26.171875 41.648438 23.5625 40.8125 C 20.9375 39.976562 19.6875 38.761719 17.3125 38.816406 C 14.9375 38.871094 11.601562 38.398438 9.320312 36.347656 C 7.035156 34.296875 5.769531 36.726562 3.558594 34.511719 C 2.941406 36.472656 2.507812 38.453125 2.253906 40.449219 Z M 2.253906 40.449219 " fill-opacity="1" fill-rule="evenodd"/><path fill="#b56474" d="M 13.070312 69.332031 C 14.195312 69.152344 15.824219 69.167969 17.546875 70.132812 C 20.753906 71.929688 24.542969 72.636719 27.007812 72 C 29.472656 71.382812 30.179688 70.839844 33.167969 72.710938 C 36.175781 74.578125 38.714844 74.214844 41.578125 73.871094 C 43.699219 73.617188 44.855469 74.707031 47.265625 75.359375 C 35.960938 79.878906 22.640625 77.863281 13.070312 69.332031 Z M 13.070312 69.332031 " fill-opacity="1" fill-rule="evenodd"/><path fill="#535575" d="M 65.171875 30.847656 C 70.335938 66.246094 30.105469 84.707031 7.726562 63.234375 C 8.867188 64.921875 10.191406 66.519531 11.675781 68.023438 C 24.597656 80.96875 45.527344 80.96875 58.449219 68.023438 C 68.488281 57.96875 70.734375 43.0625 65.171875 30.847656 Z M 65.171875 30.847656 " fill-opacity="0.2" fill-rule="evenodd"/></svg>